<?xml version="1.0" encoding="UTF-8"?><svg xmlns="http://www.w3.org/2000/svg" width="670" height="280" version="1.0" shape-rendering="geometricPrecision"><defs><filter id="shadowBlur" x="0" y="0" width="200%" height="200%"><feOffset in="SourceGraphic" dx="3.0003002" dy="3.0003002" result="offOut"></feOffset><feGaussianBlur in="offOut" stdDeviation="3"></feGaussianBlur></filter></defs><g stroke-width="1" stroke-linecap="square" stroke-linejoin="round"><rect x="0" y="0" width="670" height="280" style="fill: #ffffff"></rect><path stroke="#969696" fill="#969696" filter="url(#shadowBlur)" d="M225.0 84.0 Q225.0 77.0 230.0 77.0 L400.0 77.0 Q405.0 77.0 405.0 84.0 L405.0 126.0 L405.0 126.0 Q405.0 133.0 400.0 133.0 L230.0 133.0 L230.0 133.0 Q225.0 133.0 225.0 126.0 L225.0 84.0 z"></path><path stroke="#969696" fill="#969696" filter="url(#shadowBlur)" d="M95.0 224.0 Q95.0 217.0 100.0 217.0 L220.0 217.0 Q225.0 217.0 225.0 224.0 L225.0 238.0 L225.0 238.0 Q225.0 245.0 220.0 245.0 L100.0 245.0 L100.0 245.0 Q95.0 245.0 95.0 238.0 L95.0 224.0 z"></path><path stroke="#969696" fill="#969696" filter="url(#shadowBlur)" d="M245.0 224.0 Q245.0 217.0 250.0 217.0 L370.0 217.0 Q375.0 217.0 375.0 224.0 L375.0 238.0 L375.0 238.0 Q375.0 245.0 370.0 245.0 L250.0 245.0 L250.0 245.0 Q245.0 245.0 245.0 238.0 L245.0 224.0 z"></path><path stroke="#969696" fill="#969696" filter="url(#shadowBlur)" d="M395.0 224.0 Q395.0 217.0 400.0 217.0 L520.0 217.0 Q525.0 217.0 525.0 224.0 L525.0 238.0 L525.0 238.0 Q525.0 245.0 520.0 245.0 L400.0 245.0 L400.0 245.0 Q395.0 245.0 395.0 238.0 L395.0 224.0 z"></path><path stroke="#000000" stroke-width="1.0" stroke-linecap="round" stroke-linejoin="round" fill="white" d="M225.0 84.0 Q225.0 77.0 230.0 77.0 L400.0 77.0 Q405.0 77.0 405.0 84.0 L405.0 126.0 L405.0 126.0 Q405.0 133.0 400.0 133.0 L230.0 133.0 L230.0 133.0 Q225.0 133.0 225.0 126.0 L225.0 84.0 z"></path><path stroke="#000000" stroke-width="1.0" stroke-linecap="round" stroke-linejoin="round" fill="white" d="M95.0 224.0 Q95.0 217.0 100.0 217.0 L220.0 217.0 Q225.0 217.0 225.0 224.0 L225.0 238.0 L225.0 238.0 Q225.0 245.0 220.0 245.0 L100.0 245.0 L100.0 245.0 Q95.0 245.0 95.0 238.0 L95.0 224.0 z"></path><path stroke="#000000" stroke-width="1.0" stroke-linecap="round" stroke-linejoin="round" fill="white" d="M245.0 224.0 Q245.0 217.0 250.0 217.0 L370.0 217.0 Q375.0 217.0 375.0 224.0 L375.0 238.0 L375.0 238.0 Q375.0 245.0 370.0 245.0 L250.0 245.0 L250.0 245.0 Q245.0 245.0 245.0 238.0 L245.0 224.0 z"></path><path stroke="#000000" stroke-width="1.0" stroke-linecap="round" stroke-linejoin="round" fill="white" d="M395.0 224.0 Q395.0 217.0 400.0 217.0 L520.0 217.0 Q525.0 217.0 525.0 224.0 L525.0 238.0 L525.0 238.0 Q525.0 245.0 520.0 245.0 L400.0 245.0 L400.0 245.0 Q395.0 245.0 395.0 238.0 L395.0 224.0 z"></path><path stroke="#000000" stroke-width="1.0" stroke-linecap="round" stroke-linejoin="round" fill="none" d="M315.0 175.0 L165.0 175.0 L165.0 203.0 "></path><path stroke="#000000" stroke-width="1.0" stroke-linecap="round" stroke-linejoin="round" fill="none" d="M315.0 175.0 L465.0 175.0 L465.0 203.0 "></path><path stroke="none" stroke-width="1.0" stroke-linecap="round" stroke-linejoin="round" fill="#000000" d="M310.0 56.0 L315.0 70.0 L320.0 56.0 z"></path><path stroke="none" stroke-width="1.0" stroke-linecap="round" stroke-linejoin="round" fill="#000000" d="M160.0 196.0 L165.0 210.0 L170.0 196.0 z"></path><path stroke="none" stroke-width="1.0" stroke-linecap="round" stroke-linejoin="round" fill="#000000" d="M310.0 196.0 L315.0 210.0 L320.0 196.0 z"></path><path stroke="none" stroke-width="1.0" stroke-linecap="round" stroke-linejoin="round" fill="#000000" d="M460.0 196.0 L465.0 210.0 L470.0 196.0 z"></path><path stroke="#000000" stroke-width="1.0" stroke-linecap="round" stroke-linejoin="round" fill="none" d="M315.0 35.0 L315.0 63.0 "></path><path stroke="#000000" stroke-width="1.0" stroke-linecap="round" stroke-linejoin="round" fill="none" d="M25.0 105.0 L215.0 105.0 "></path><path stroke="#000000" stroke-width="1.0" stroke-linecap="round" stroke-linejoin="round" fill="none" d="M415.0 105.0 L645.0 105.0 "></path><path stroke="#000000" stroke-width="1.0" stroke-linecap="round" stroke-linejoin="round" fill="none" d="M315.0 175.0 L315.0 203.0 "></path><path stroke="#000000" stroke-width="1.0" stroke-linecap="round" stroke-linejoin="round" fill="none" d="M315.0 133.0 L315.0 175.0 "></path><path stroke="#000000" stroke-width="1.0" stroke-linecap="round" stroke-linejoin="round" fill="#ffffff" d="M318.5 77.0 L318.38074 77.90587 L318.0311 78.75 L317.47488 79.47488 L316.75 80.03109 L315.90585 80.38074 L315.0 80.5 L314.09415 80.38074 L313.25 80.03109 L312.52512 79.47488 L311.9689 78.75 L311.61926 77.90587 L311.5 77.0 L311.61926 76.09413 L311.9689 75.25 L312.52512 74.52512 L313.25 73.96891 L314.09415 73.61926 L315.0 73.5 L315.90585 73.61926 L316.75 73.96891 L317.47488 74.52512 L318.0311 75.25 L318.38074 76.09413 L318.5 77.0 z"></path><path stroke="#000000" stroke-width="1.0" stroke-linecap="round" stroke-linejoin="round" fill="#ffffff" d="M318.5 133.0 L318.38074 133.90587 L318.0311 134.75 L317.47488 135.47487 L316.75 136.03108 L315.90585 136.38074 L315.0 136.5 L314.09415 136.38074 L313.25 136.03108 L312.52512 135.47487 L311.9689 134.75 L311.61926 133.90587 L311.5 133.0 L311.61926 132.09413 L311.9689 131.25 L312.52512 130.52513 L313.25 129.96892 L314.09415 129.61926 L315.0 129.5 L315.90585 129.61926 L316.75 129.96892 L317.47488 130.52513 L318.0311 131.25 L318.38074 132.09413 L318.5 133.0 z"></path><text x="333" y="54" font-family="sans-serif" font-size="15" stroke="none" fill="#000000"><![CDATA[floating IP]]></text><text x="31" y="96" font-family="sans-serif" font-size="15" stroke="none" fill="#000000"><![CDATA[dmz network]]></text><text x="254" y="110" font-family="sans-serif" font-size="15" stroke="none" fill="#000000"><![CDATA[yawollet / envoy]]></text><text x="31" y="124" font-family="sans-serif" font-size="15" stroke="none" fill="#000000"><![CDATA[cluster network]]></text><text x="333" y="152" font-family="sans-serif" font-size="15" stroke="none" fill="#000000"><![CDATA[internal IP]]></text><text x="117" y="236" font-family="sans-serif" font-size="15" stroke="none" fill="#000000"><![CDATA[cluster VM]]></text><text x="267" y="236" font-family="sans-serif" font-size="15" stroke="none" fill="#000000"><![CDATA[cluster VM]]></text><text x="417" y="236" font-family="sans-serif" font-size="15" stroke="none" fill="#000000"><![CDATA[cluster VM]]></text><text x="546" y="236" font-family="sans-serif" font-size="15" stroke="none" fill="#000000"><![CDATA[...]]></text></g></svg>