<?xml version="1.0" encoding="UTF-8"?><svg xmlns="http://www.w3.org/2000/svg" width="920" height="2170" version="1.0" shape-rendering="geometricPrecision"><defs><style type="text/css">@font-face {
  font-family: sans-serif;
}</style><filter id="shadowBlur" x="0" y="0" width="200%" height="200%"><feOffset in="SourceGraphic" dx="3.0003002" dy="3.0003002" result="offOut"></feOffset><feGaussianBlur in="offOut" stdDeviation="3"></feGaussianBlur></filter></defs><g stroke-width="1" stroke-linecap="square" stroke-linejoin="round"><rect x="0" y="0" width="920" height="2170" style="fill: #ffffff"></rect><path stroke="#969696" fill="#969696" filter="url(#shadowBlur)" d="M645.0 861.0 L835.0 861.0 L835.0 1015.0 Q771.0 996.0 740.0 1015.0 Q709.0 1034.0 645.0 1015.0 z"></path><path stroke="#969696" fill="#969696" filter="url(#shadowBlur)" d="M585.0 2009.0 L805.0 2009.0 L805.0 2135.0 Q731.0 2120.0 695.0 2135.0 Q659.0 2150.0 585.0 2135.0 z"></path><path stroke="#969696" fill="#969696" filter="url(#shadowBlur)" d="M355.0 875.0 L545.0 875.0 L545.0 1015.0 Q481.0 998.0 450.0 1015.0 Q419.0 1032.0 355.0 1015.0 z"></path><path stroke="#969696" fill="#969696" filter="url(#shadowBlur)" d="M305.0 343.0 L515.0 343.0 L515.0 469.0 Q445.0 454.0 410.0 469.0 Q375.0 484.0 305.0 469.0 z"></path><path stroke="#969696" fill="#969696" filter="url(#shadowBlur)" d="M455.0 1491.0 L635.0 1491.0 L635.0 1631.0 Q575.0 1614.0 545.0 1631.0 Q515.0 1648.0 455.0 1631.0 z"></path><path stroke="#969696" fill="#969696" filter="url(#shadowBlur)" d="M355.0 693.0 L535.0 693.0 L535.0 833.0 Q475.0 816.0 445.0 833.0 Q415.0 850.0 355.0 833.0 z"></path><path stroke="#969696" fill="#969696" filter="url(#shadowBlur)" d="M455.0 1295.0 L635.0 1295.0 L635.0 1421.0 Q575.0 1406.0 545.0 1421.0 Q515.0 1436.0 455.0 1421.0 z"></path><path stroke="#969696" fill="#969696" filter="url(#shadowBlur)" d="M305.0 2009.0 L485.0 2009.0 L485.0 2135.0 Q425.0 2120.0 395.0 2135.0 Q365.0 2150.0 305.0 2135.0 z"></path><path stroke="#969696" fill="#969696" filter="url(#shadowBlur)" d="M305.0 175.0 L525.0 175.0 L525.0 273.0 Q451.0 261.0 415.0 273.0 Q379.0 285.0 305.0 273.0 z"></path><path stroke="#969696" fill="#969696" filter="url(#shadowBlur)" d="M655.0 693.0 L825.0 693.0 L825.0 819.0 Q768.0 804.0 740.0 819.0 Q712.0 834.0 655.0 819.0 z"></path><path stroke="#969696" fill="#969696" filter="url(#shadowBlur)" d="M75.0 623.0 L255.0 623.0 L255.0 735.0 Q195.0 721.0 165.0 735.0 Q135.0 749.0 75.0 735.0 z"></path><path stroke="#969696" fill="#969696" filter="url(#shadowBlur)" d="M75.0 1043.0 L235.0 1043.0 L235.0 1169.0 Q181.0 1154.0 155.0 1169.0 Q129.0 1184.0 75.0 1169.0 z"></path><path stroke="#969696" fill="#969696" filter="url(#shadowBlur)" d="M465.0 1834.0 Q465.0 1827.0 470.0 1827.0 L630.0 1827.0 Q635.0 1827.0 635.0 1834.0 L635.0 1918.0 L635.0 1918.0 Q635.0 1925.0 630.0 1925.0 L470.0 1925.0 L470.0 1925.0 Q465.0 1925.0 465.0 1918.0 L465.0 1834.0 z"></path><path stroke="#969696" fill="#969696" filter="url(#shadowBlur)" d="M55.0 1232.0 Q55.0 1225.0 60.0 1225.0 L260.0 1225.0 Q265.0 1225.0 265.0 1232.0 L265.0 1288.0 L265.0 1288.0 Q265.0 1295.0 260.0 1295.0 L60.0 1295.0 L60.0 1295.0 Q55.0 1295.0 55.0 1288.0 L55.0 1232.0 z"></path><path stroke="#969696" fill="#969696" filter="url(#shadowBlur)" d="M335.0 42.0 Q335.0 35.0 340.0 35.0 L490.0 35.0 Q495.0 35.0 495.0 42.0 L495.0 112.0 L495.0 112.0 Q495.0 119.0 490.0 119.0 L340.0 119.0 L340.0 119.0 Q335.0 119.0 335.0 112.0 L335.0 42.0 z"></path><path stroke="#969696" fill="#969696" filter="url(#shadowBlur)" d="M65.0 938.0 Q65.0 931.0 70.0 931.0 L250.0 931.0 Q255.0 931.0 255.0 938.0 L255.0 980.0 L255.0 980.0 Q255.0 987.0 250.0 987.0 L70.0 987.0 L70.0 987.0 Q65.0 987.0 65.0 980.0 L65.0 938.0 z"></path><path stroke="#969696" fill="#969696" filter="url(#shadowBlur)" d="M115.0 805.0 L205.0 805.0 L205.0 875.0 L115.0 875.0 z"></path><path stroke="#969696" fill="#969696" filter="url(#shadowBlur)" d="M265.0 1701.0 L355.0 1701.0 L355.0 1771.0 L265.0 1771.0 z"></path><path stroke="#969696" fill="#969696" filter="url(#shadowBlur)" d="M505.0 1701.0 L595.0 1701.0 L595.0 1771.0 L505.0 1771.0 z"></path><path stroke="#969696" fill="#969696" filter="url(#shadowBlur)" d="M335.0 189.0 L495.0 189.0 L495.0 217.0 L335.0 217.0 z"></path><path stroke="#969696" fill="#969696" filter="url(#shadowBlur)" d="M335.0 357.0 L495.0 357.0 L495.0 385.0 L335.0 385.0 z"></path><path stroke="#969696" fill="#969696" filter="url(#shadowBlur)" d="M85.0 637.0 L245.0 637.0 L245.0 665.0 L85.0 665.0 z"></path><path stroke="#969696" fill="#969696" filter="url(#shadowBlur)" d="M655.0 875.0 L815.0 875.0 L815.0 903.0 L655.0 903.0 z"></path><path stroke="#969696" fill="#969696" filter="url(#shadowBlur)" d="M365.0 889.0 L525.0 889.0 L525.0 917.0 L365.0 917.0 z"></path><path stroke="#969696" fill="#969696" filter="url(#shadowBlur)" d="M465.0 1309.0 L625.0 1309.0 L625.0 1337.0 L465.0 1337.0 z"></path><path stroke="#969696" fill="#969696" filter="url(#shadowBlur)" d="M465.0 1505.0 L625.0 1505.0 L625.0 1533.0 L465.0 1533.0 z"></path><path stroke="#969696" fill="#969696" filter="url(#shadowBlur)" d="M315.0 2023.0 L475.0 2023.0 L475.0 2051.0 L315.0 2051.0 z"></path><path stroke="#969696" fill="#969696" filter="url(#shadowBlur)" d="M615.0 2023.0 L775.0 2023.0 L775.0 2051.0 L615.0 2051.0 z"></path><path stroke="#969696" fill="#969696" filter="url(#shadowBlur)" d="M375.0 707.0 L515.0 707.0 L515.0 735.0 L375.0 735.0 z"></path><path stroke="#969696" fill="#969696" filter="url(#shadowBlur)" d="M675.0 707.0 L815.0 707.0 L815.0 735.0 L675.0 735.0 z"></path><path stroke="#969696" fill="#969696" filter="url(#shadowBlur)" d="M85.0 1057.0 L225.0 1057.0 L225.0 1085.0 L85.0 1085.0 z"></path><path stroke="#000000" stroke-width="1.0" stroke-linecap="round" stroke-linejoin="round" fill="none" d="M525.0 231.0 L895.0 231.0 L895.0 1729.0 L605.0 1729.0 "></path><path stroke="#000000" stroke-width="1.0" stroke-linecap="round" stroke-linejoin="round" fill="none" d="M305.0 413.0 L25.0 413.0 L25.0 1729.0 L145.0 1729.0 "></path><path stroke="#000000" stroke-width="1.0" stroke-dasharray="5.0,5.0" stroke-miterlimit="0" stroke-linecap="butt" stroke-linejoin="round" fill="none" d="M335.0 665.0 L565.0 665.0 L565.0 1043.0 L335.0 1043.0 z"></path><path stroke="#000000" stroke-width="1.0" stroke-dasharray="5.0,5.0" stroke-miterlimit="0" stroke-linecap="butt" stroke-linejoin="round" fill="none" d="M625.0 665.0 L855.0 665.0 L855.0 1043.0 L625.0 1043.0 z"></path><path stroke="#000000" stroke-width="1.0" stroke-linecap="round" stroke-linejoin="round" fill="none" d="M155.0 1295.0 L155.0 1869.0 L455.0 1869.0 "></path><path stroke="#000000" stroke-width="1.0" stroke-linecap="round" stroke-linejoin="round" fill="white" d="M645.0 861.0 L835.0 861.0 L835.0 1015.0 Q771.0 996.0 740.0 1015.0 Q709.0 1034.0 645.0 1015.0 z"></path><path stroke="#000000" stroke-width="1.0" stroke-linecap="round" stroke-linejoin="round" fill="white" d="M585.0 2009.0 L805.0 2009.0 L805.0 2135.0 Q731.0 2120.0 695.0 2135.0 Q659.0 2150.0 585.0 2135.0 z"></path><path stroke="#000000" stroke-width="1.0" stroke-linecap="round" stroke-linejoin="round" fill="white" d="M355.0 875.0 L545.0 875.0 L545.0 1015.0 Q481.0 998.0 450.0 1015.0 Q419.0 1032.0 355.0 1015.0 z"></path><path stroke="#000000" stroke-width="1.0" stroke-linecap="round" stroke-linejoin="round" fill="white" d="M305.0 343.0 L515.0 343.0 L515.0 469.0 Q445.0 454.0 410.0 469.0 Q375.0 484.0 305.0 469.0 z"></path><path stroke="#000000" stroke-width="1.0" stroke-linecap="round" stroke-linejoin="round" fill="white" d="M455.0 1491.0 L635.0 1491.0 L635.0 1631.0 Q575.0 1614.0 545.0 1631.0 Q515.0 1648.0 455.0 1631.0 z"></path><path stroke="#000000" stroke-width="1.0" stroke-linecap="round" stroke-linejoin="round" fill="white" d="M355.0 693.0 L535.0 693.0 L535.0 833.0 Q475.0 816.0 445.0 833.0 Q415.0 850.0 355.0 833.0 z"></path><path stroke="#000000" stroke-width="1.0" stroke-linecap="round" stroke-linejoin="round" fill="white" d="M455.0 1295.0 L635.0 1295.0 L635.0 1421.0 Q575.0 1406.0 545.0 1421.0 Q515.0 1436.0 455.0 1421.0 z"></path><path stroke="#000000" stroke-width="1.0" stroke-linecap="round" stroke-linejoin="round" fill="white" d="M305.0 2009.0 L485.0 2009.0 L485.0 2135.0 Q425.0 2120.0 395.0 2135.0 Q365.0 2150.0 305.0 2135.0 z"></path><path stroke="#000000" stroke-width="1.0" stroke-linecap="round" stroke-linejoin="round" fill="white" d="M305.0 175.0 L525.0 175.0 L525.0 273.0 Q451.0 261.0 415.0 273.0 Q379.0 285.0 305.0 273.0 z"></path><path stroke="#000000" stroke-width="1.0" stroke-linecap="round" stroke-linejoin="round" fill="white" d="M655.0 693.0 L825.0 693.0 L825.0 819.0 Q768.0 804.0 740.0 819.0 Q712.0 834.0 655.0 819.0 z"></path><path stroke="#000000" stroke-width="1.0" stroke-linecap="round" stroke-linejoin="round" fill="white" d="M75.0 623.0 L255.0 623.0 L255.0 735.0 Q195.0 721.0 165.0 735.0 Q135.0 749.0 75.0 735.0 z"></path><path stroke="#000000" stroke-width="1.0" stroke-linecap="round" stroke-linejoin="round" fill="white" d="M75.0 1043.0 L235.0 1043.0 L235.0 1169.0 Q181.0 1154.0 155.0 1169.0 Q129.0 1184.0 75.0 1169.0 z"></path><path stroke="#000000" stroke-width="1.0" stroke-linecap="round" stroke-linejoin="round" fill="#ffdd00" d="M465.0 1834.0 Q465.0 1827.0 470.0 1827.0 L630.0 1827.0 Q635.0 1827.0 635.0 1834.0 L635.0 1918.0 L635.0 1918.0 Q635.0 1925.0 630.0 1925.0 L470.0 1925.0 L470.0 1925.0 Q465.0 1925.0 465.0 1918.0 L465.0 1834.0 z"></path><path stroke="#000000" stroke-width="1.0" stroke-linecap="round" stroke-linejoin="round" fill="#ffdd00" d="M55.0 1232.0 Q55.0 1225.0 60.0 1225.0 L260.0 1225.0 Q265.0 1225.0 265.0 1232.0 L265.0 1288.0 L265.0 1288.0 Q265.0 1295.0 260.0 1295.0 L60.0 1295.0 L60.0 1295.0 Q55.0 1295.0 55.0 1288.0 L55.0 1232.0 z"></path><path stroke="#000000" stroke-width="1.0" stroke-linecap="round" stroke-linejoin="round" fill="#ffdd00" d="M335.0 42.0 Q335.0 35.0 340.0 35.0 L490.0 35.0 Q495.0 35.0 495.0 42.0 L495.0 112.0 L495.0 112.0 Q495.0 119.0 490.0 119.0 L340.0 119.0 L340.0 119.0 Q335.0 119.0 335.0 112.0 L335.0 42.0 z"></path><path stroke="#000000" stroke-width="1.0" stroke-linecap="round" stroke-linejoin="round" fill="none" d="M545.0 1197.0 L705.0 1197.0 L705.0 1043.0 "></path><path stroke="#000000" stroke-width="1.0" stroke-linecap="round" stroke-linejoin="round" fill="none" d="M255.0 693.0 L305.0 693.0 L305.0 1141.0 "></path><path stroke="#000000" stroke-width="1.0" stroke-linecap="round" stroke-linejoin="round" fill="#ffdd00" d="M65.0 938.0 Q65.0 931.0 70.0 931.0 L250.0 931.0 Q255.0 931.0 255.0 938.0 L255.0 980.0 L255.0 980.0 Q255.0 987.0 250.0 987.0 L70.0 987.0 L70.0 987.0 Q65.0 987.0 65.0 980.0 L65.0 938.0 z"></path><path stroke="#000000" stroke-width="1.0" stroke-linecap="round" stroke-linejoin="round" fill="none" d="M415.0 525.0 L175.0 525.0 L175.0 609.0 "></path><path stroke="#000000" stroke-width="1.0" stroke-linecap="round" stroke-linejoin="round" fill="none" d="M415.0 1043.0 L415.0 1197.0 L545.0 1197.0 "></path><path stroke="#000000" stroke-width="1.0" stroke-linecap="round" stroke-linejoin="round" fill="#22aa22" d="M115.0 805.0 L205.0 805.0 L205.0 875.0 L115.0 875.0 z"></path><path stroke="#000000" stroke-width="1.0" stroke-linecap="round" stroke-linejoin="round" fill="#ee3322" d="M265.0 1701.0 L355.0 1701.0 L355.0 1771.0 L265.0 1771.0 z"></path><path stroke="#000000" stroke-width="1.0" stroke-linecap="round" stroke-linejoin="round" fill="#22aa22" d="M505.0 1701.0 L595.0 1701.0 L595.0 1771.0 L505.0 1771.0 z"></path><path stroke="#000000" stroke-width="1.0" stroke-linecap="round" stroke-linejoin="round" fill="none" d="M415.0 525.0 L595.0 525.0 L595.0 595.0 "></path><path stroke="#000000" stroke-width="1.0" stroke-linecap="round" stroke-linejoin="round" fill="#5555bb" d="M335.0 189.0 L495.0 189.0 L495.0 217.0 L335.0 217.0 z"></path><path stroke="#000000" stroke-width="1.0" stroke-linecap="round" stroke-linejoin="round" fill="#5555bb" d="M335.0 357.0 L495.0 357.0 L495.0 385.0 L335.0 385.0 z"></path><path stroke="#000000" stroke-width="1.0" stroke-linecap="round" stroke-linejoin="round" fill="#5555bb" d="M85.0 637.0 L245.0 637.0 L245.0 665.0 L85.0 665.0 z"></path><path stroke="#000000" stroke-width="1.0" stroke-linecap="round" stroke-linejoin="round" fill="#5555bb" d="M655.0 875.0 L815.0 875.0 L815.0 903.0 L655.0 903.0 z"></path><path stroke="#000000" stroke-width="1.0" stroke-linecap="round" stroke-linejoin="round" fill="#5555bb" d="M365.0 889.0 L525.0 889.0 L525.0 917.0 L365.0 917.0 z"></path><path stroke="#000000" stroke-width="1.0" stroke-linecap="round" stroke-linejoin="round" fill="#5555bb" d="M465.0 1309.0 L625.0 1309.0 L625.0 1337.0 L465.0 1337.0 z"></path><path stroke="#000000" stroke-width="1.0" stroke-linecap="round" stroke-linejoin="round" fill="#5555bb" d="M465.0 1505.0 L625.0 1505.0 L625.0 1533.0 L465.0 1533.0 z"></path><path stroke="#000000" stroke-width="1.0" stroke-linecap="round" stroke-linejoin="round" fill="#99dd99" d="M315.0 2023.0 L475.0 2023.0 L475.0 2051.0 L315.0 2051.0 z"></path><path stroke="#000000" stroke-width="1.0" stroke-linecap="round" stroke-linejoin="round" fill="#99dd99" d="M615.0 2023.0 L775.0 2023.0 L775.0 2051.0 L615.0 2051.0 z"></path><path stroke="#000000" stroke-width="1.0" stroke-linecap="round" stroke-linejoin="round" fill="none" d="M595.0 595.0 L445.0 595.0 L445.0 651.0 "></path><path stroke="#000000" stroke-width="1.0" stroke-linecap="round" stroke-linejoin="round" fill="none" d="M595.0 595.0 L745.0 595.0 L745.0 651.0 "></path><path stroke="#000000" stroke-width="1.0" stroke-linecap="round" stroke-linejoin="round" fill="#ffaaaa" d="M375.0 707.0 L515.0 707.0 L515.0 735.0 L375.0 735.0 z"></path><path stroke="#000000" stroke-width="1.0" stroke-linecap="round" stroke-linejoin="round" fill="#ffaaaa" d="M675.0 707.0 L815.0 707.0 L815.0 735.0 L675.0 735.0 z"></path><path stroke="#000000" stroke-width="1.0" stroke-linecap="round" stroke-linejoin="round" fill="#ffaaaa" d="M85.0 1057.0 L225.0 1057.0 L225.0 1085.0 L85.0 1085.0 z"></path><path stroke="#000000" stroke-width="1.0" stroke-linecap="round" stroke-linejoin="round" fill="none" d="M775.0 1043.0 L775.0 1141.0 L715.0 1141.0 "></path><path stroke="#000000" stroke-width="1.0" stroke-linecap="round" stroke-linejoin="round" fill="none" d="M545.0 1967.0 L395.0 1967.0 L395.0 1995.0 "></path><path stroke="#000000" stroke-width="1.0" stroke-linecap="round" stroke-linejoin="round" fill="none" d="M545.0 1967.0 L695.0 1967.0 L695.0 1995.0 "></path><path stroke="none" stroke-width="1.0" stroke-linecap="round" stroke-linejoin="round" fill="#000000" d="M410.0 154.0 L415.0 168.0 L420.0 154.0 z"></path><path stroke="none" stroke-width="1.0" stroke-linecap="round" stroke-linejoin="round" fill="#000000" d="M410.0 322.0 L415.0 336.0 L420.0 322.0 z"></path><path stroke="none" stroke-width="1.0" stroke-linecap="round" stroke-linejoin="round" fill="#000000" d="M170.0 602.0 L175.0 616.0 L180.0 602.0 z"></path><path stroke="none" stroke-width="1.0" stroke-linecap="round" stroke-linejoin="round" fill="#000000" d="M440.0 644.0 L445.0 658.0 L450.0 644.0 z"></path><path stroke="none" stroke-width="1.0" stroke-linecap="round" stroke-linejoin="round" fill="#000000" d="M740.0 644.0 L745.0 658.0 L750.0 644.0 z"></path><path stroke="none" stroke-width="1.0" stroke-linecap="round" stroke-linejoin="round" fill="#000000" d="M150.0 784.0 L155.0 798.0 L160.0 784.0 z"></path><path stroke="none" stroke-width="1.0" stroke-linecap="round" stroke-linejoin="round" fill="#000000" d="M740.0 840.0 L745.0 854.0 L750.0 840.0 z"></path><path stroke="none" stroke-width="1.0" stroke-linecap="round" stroke-linejoin="round" fill="#000000" d="M440.0 854.0 L445.0 868.0 L450.0 854.0 z"></path><path stroke="none" stroke-width="1.0" stroke-linecap="round" stroke-linejoin="round" fill="#000000" d="M150.0 910.0 L155.0 924.0 L160.0 910.0 z"></path><path stroke="none" stroke-width="1.0" stroke-linecap="round" stroke-linejoin="round" fill="#000000" d="M150.0 1022.0 L155.0 1036.0 L160.0 1022.0 z"></path><path stroke="none" stroke-width="1.0" stroke-linecap="round" stroke-linejoin="round" fill="#000000" d="M150.0 1204.0 L155.0 1218.0 L160.0 1204.0 z"></path><path stroke="none" stroke-width="1.0" stroke-linecap="round" stroke-linejoin="round" fill="#000000" d="M540.0 1274.0 L545.0 1288.0 L550.0 1274.0 z"></path><path stroke="none" stroke-width="1.0" stroke-linecap="round" stroke-linejoin="round" fill="#000000" d="M540.0 1470.0 L545.0 1484.0 L550.0 1470.0 z"></path><path stroke="none" stroke-width="1.0" stroke-linecap="round" stroke-linejoin="round" fill="#000000" d="M300.0 1680.0 L305.0 1694.0 L310.0 1680.0 z"></path><path stroke="none" stroke-width="1.0" stroke-linecap="round" stroke-linejoin="round" fill="#000000" d="M540.0 1680.0 L545.0 1694.0 L550.0 1680.0 z"></path><path stroke="none" stroke-width="1.0" stroke-linecap="round" stroke-linejoin="round" fill="#000000" d="M250.0 1722.0 L260.0 1729.0 L250.0 1736.0 z"></path><path stroke="none" stroke-width="1.0" stroke-linecap="round" stroke-linejoin="round" fill="#000000" d="M610.0 1722.0 L600.0 1729.0 L610.0 1736.0 z"></path><path stroke="none" stroke-width="1.0" stroke-linecap="round" stroke-linejoin="round" fill="#000000" d="M540.0 1806.0 L545.0 1820.0 L550.0 1806.0 z"></path><path stroke="none" stroke-width="1.0" stroke-linecap="round" stroke-linejoin="round" fill="#000000" d="M450.0 1862.0 L460.0 1869.0 L450.0 1876.0 z"></path><path stroke="none" stroke-width="1.0" stroke-linecap="round" stroke-linejoin="round" fill="#000000" d="M390.0 1988.0 L395.0 2002.0 L400.0 1988.0 z"></path><path stroke="none" stroke-width="1.0" stroke-linecap="round" stroke-linejoin="round" fill="#000000" d="M690.0 1988.0 L695.0 2002.0 L700.0 1988.0 z"></path><path stroke="#000000" stroke-width="1.0" stroke-linecap="round" stroke-linejoin="round" fill="none" d="M745.0 826.0 L745.0 847.0 "></path><path stroke="#000000" stroke-width="1.0" stroke-linecap="round" stroke-linejoin="round" fill="none" d="M445.0 840.0 L445.0 861.0 "></path><path stroke="#000000" stroke-width="1.0" stroke-linecap="round" stroke-linejoin="round" fill="none" d="M155.0 749.0 L155.0 791.0 "></path><path stroke="#000000" stroke-width="1.0" stroke-linecap="round" stroke-linejoin="round" fill="none" d="M165.0 1729.0 L255.0 1729.0 "></path><path stroke="#000000" stroke-width="1.0" stroke-linecap="round" stroke-linejoin="round" fill="none" d="M415.0 119.0 L415.0 161.0 "></path><path stroke="#000000" stroke-width="1.0" stroke-linecap="round" stroke-linejoin="round" fill="none" d="M415.0 273.0 L415.0 329.0 "></path><path stroke="#000000" stroke-width="1.0" stroke-linecap="round" stroke-linejoin="round" fill="none" d="M415.0 469.0 L415.0 525.0 "></path><path stroke="#000000" stroke-width="1.0" stroke-linecap="round" stroke-linejoin="round" fill="none" d="M305.0 1141.0 L405.0 1141.0 "></path><path stroke="#000000" stroke-width="1.0" stroke-linecap="round" stroke-linejoin="round" fill="none" d="M305.0 1365.0 L455.0 1365.0 "></path><path stroke="#000000" stroke-width="1.0" stroke-linecap="round" stroke-linejoin="round" fill="none" d="M305.0 1561.0 L455.0 1561.0 "></path><path stroke="#000000" stroke-width="1.0" stroke-linecap="round" stroke-linejoin="round" fill="none" d="M305.0 1561.0 L305.0 1687.0 "></path><path stroke="#000000" stroke-width="1.0" stroke-linecap="round" stroke-linejoin="round" fill="none" d="M305.0 1365.0 L305.0 1561.0 "></path><path stroke="#000000" stroke-width="1.0" stroke-linecap="round" stroke-linejoin="round" fill="none" d="M305.0 1141.0 L305.0 1365.0 "></path><path stroke="#000000" stroke-width="1.0" stroke-linecap="round" stroke-linejoin="round" fill="none" d="M545.0 1421.0 L545.0 1477.0 "></path><path stroke="#000000" stroke-width="1.0" stroke-linecap="round" stroke-linejoin="round" fill="none" d="M545.0 1631.0 L545.0 1687.0 "></path><path stroke="#000000" stroke-width="1.0" stroke-linecap="round" stroke-linejoin="round" fill="none" d="M545.0 1197.0 L545.0 1281.0 "></path><path stroke="#000000" stroke-width="1.0" stroke-linecap="round" stroke-linejoin="round" fill="none" d="M485.0 1141.0 L425.0 1141.0 "></path><path stroke="#000000" stroke-width="1.0" stroke-linecap="round" stroke-linejoin="round" fill="none" d="M485.0 1141.0 L695.0 1141.0 "></path><path stroke="#000000" stroke-width="1.0" stroke-linecap="round" stroke-linejoin="round" fill="none" d="M485.0 1043.0 L485.0 1141.0 "></path><path stroke="#000000" stroke-width="1.0" stroke-linecap="round" stroke-linejoin="round" fill="none" d="M155.0 875.0 L155.0 917.0 "></path><path stroke="#000000" stroke-width="1.0" stroke-linecap="round" stroke-linejoin="round" fill="none" d="M155.0 987.0 L155.0 1029.0 "></path><path stroke="#000000" stroke-width="1.0" stroke-linecap="round" stroke-linejoin="round" fill="none" d="M155.0 1169.0 L155.0 1211.0 "></path><path stroke="#000000" stroke-width="1.0" stroke-linecap="round" stroke-linejoin="round" fill="none" d="M545.0 1771.0 L545.0 1813.0 "></path><path stroke="#000000" stroke-width="1.0" stroke-linecap="round" stroke-linejoin="round" fill="none" d="M545.0 1925.0 L545.0 1967.0 "></path><text x="350" y="68" font-family="sans-serif" font-size="14" stroke="none" fill="#000000"><![CDATA[CREATE]]></text><text x="350" y="83" font-family="sans-serif" font-size="16" stroke="none" fill="#000000"><![CDATA[Namespace,]]></text><text x="350" y="97" font-family="sans-serif" font-size="16" stroke="none" fill="#000000"><![CDATA[ProjectRequest]]></text><text x="301" y="167" font-family="sans-serif" font-size="16" stroke="none" fill="#000000"><![CDATA[PRIV]]></text><text x="383" y="208" font-family="sans-serif" font-size="15" stroke="none" fill="#ffffff"><![CDATA[VALIDATE]]></text><text x="572" y="223" font-family="sans-serif" font-size="16" stroke="none" fill="#000000"><![CDATA[yes]]></text><text x="347" y="237" font-family="sans-serif" font-size="16" stroke="none" fill="#000000"><![CDATA[Principal is allowed]]></text><text x="351" y="251" font-family="sans-serif" font-size="16" stroke="none" fill="#000000"><![CDATA[to bypass policies]]></text><text x="420" y="307" font-family="sans-serif" font-size="16" stroke="none" fill="#000000"><![CDATA[no]]></text><text x="301" y="334" font-family="sans-serif" font-size="14" stroke="none" fill="#000000"><![CDATA[RSVD]]></text><text x="383" y="376" font-family="sans-serif" font-size="15" stroke="none" fill="#ffffff"><![CDATA[VALIDATE]]></text><text x="262" y="405" font-family="sans-serif" font-size="16" stroke="none" fill="#000000"><![CDATA[yes]]></text><text x="330" y="405" font-family="sans-serif" font-size="16" stroke="none" fill="#000000"><![CDATA[Check if requested]]></text><text x="330" y="419" font-family="sans-serif" font-size="16" stroke="none" fill="#000000"><![CDATA[namespace/project]]></text><text x="330" y="433" font-family="sans-serif" font-size="16" stroke="none" fill="#000000"><![CDATA[name matches a]]></text><text x="330" y="447" font-family="sans-serif" font-size="16" stroke="none" fill="#000000"><![CDATA[reserved prefix]]></text><text x="420" y="503" font-family="sans-serif" font-size="16" stroke="none" fill="#000000"><![CDATA[no]]></text><text x="180" y="558" font-family="sans-serif" font-size="14" stroke="none" fill="#000000"><![CDATA[CREATE]]></text><text x="180" y="573" font-family="sans-serif" font-size="16" stroke="none" fill="#000000"><![CDATA[ProjectRequest]]></text><text x="600" y="558" font-family="sans-serif" font-size="14" stroke="none" fill="#000000"><![CDATA[CREATE]]></text><text x="600" y="573" font-family="sans-serif" font-size="16" stroke="none" fill="#000000"><![CDATA[Namespace]]></text><text x="72" y="614" font-family="sans-serif" font-size="14" stroke="none" fill="#000000"><![CDATA[PRJREQ_ORG]]></text><text x="450" y="629" font-family="sans-serif" font-size="16" stroke="none" fill="#000000"><![CDATA[Principal]]></text><text x="450" y="643" font-family="sans-serif" font-size="16" stroke="none" fill="#000000"><![CDATA[is User]]></text><text x="673" y="629" font-family="sans-serif" font-size="16" stroke="none" fill="#000000"><![CDATA[Principal]]></text><text x="701" y="643" font-family="sans-serif" font-size="16" stroke="none" fill="#000000"><![CDATA[is SA]]></text><text x="133" y="656" font-family="sans-serif" font-size="15" stroke="none" fill="#ffffff"><![CDATA[VALIDATE]]></text><text x="100" y="685" font-family="sans-serif" font-size="16" stroke="none" fill="#000000"><![CDATA[Check that user]]></text><text x="100" y="699" font-family="sans-serif" font-size="16" stroke="none" fill="#000000"><![CDATA[has default]]></text><text x="100" y="713" font-family="sans-serif" font-size="16" stroke="none" fill="#000000"><![CDATA[organization]]></text><text x="270" y="685" font-family="sans-serif" font-size="16" stroke="none" fill="#000000"><![CDATA[no]]></text><text x="341" y="684" font-family="sans-serif" font-size="14" stroke="none" fill="#000000"><![CDATA[USR_NS_ORG]]></text><text x="631" y="684" font-family="sans-serif" font-size="14" stroke="none" fill="#000000"><![CDATA[SA_NS_ORG]]></text><text x="421" y="726" font-family="sans-serif" font-size="14" stroke="none" fill="#000000"><![CDATA[MUTATE]]></text><text x="721" y="726" font-family="sans-serif" font-size="14" stroke="none" fill="#000000"><![CDATA[MUTATE]]></text><text x="400" y="755" font-family="sans-serif" font-size="16" stroke="none" fill="#000000"><![CDATA[Inject user's]]></text><text x="400" y="769" font-family="sans-serif" font-size="16" stroke="none" fill="#000000"><![CDATA[default]]></text><text x="400" y="783" font-family="sans-serif" font-size="16" stroke="none" fill="#000000"><![CDATA[organization]]></text><text x="400" y="797" font-family="sans-serif" font-size="16" stroke="none" fill="#000000"><![CDATA[if no label]]></text><text x="400" y="811" font-family="sans-serif" font-size="16" stroke="none" fill="#000000"><![CDATA[in request]]></text><text x="700" y="755" font-family="sans-serif" font-size="16" stroke="none" fill="#000000"><![CDATA[Inject SA's]]></text><text x="700" y="769" font-family="sans-serif" font-size="16" stroke="none" fill="#000000"><![CDATA[organization]]></text><text x="700" y="783" font-family="sans-serif" font-size="16" stroke="none" fill="#000000"><![CDATA[if no label]]></text><text x="700" y="797" font-family="sans-serif" font-size="16" stroke="none" fill="#000000"><![CDATA[in request]]></text><text x="162" y="769" font-family="sans-serif" font-size="16" stroke="none" fill="#000000"><![CDATA[yes]]></text><text x="142" y="838" font-family="sans-serif" font-size="13" stroke="none" fill="#ffffff"><![CDATA[ALLOW]]></text><text x="136" y="853" font-family="sans-serif" font-size="16" stroke="none" fill="#ffffff"><![CDATA[request]]></text><text x="703" y="894" font-family="sans-serif" font-size="15" stroke="none" fill="#ffffff"><![CDATA[VALIDATE]]></text><text x="413" y="908" font-family="sans-serif" font-size="15" stroke="none" fill="#ffffff"><![CDATA[VALIDATE]]></text><text x="690" y="923" font-family="sans-serif" font-size="16" stroke="none" fill="#000000"><![CDATA[Check that NS]]></text><text x="690" y="937" font-family="sans-serif" font-size="16" stroke="none" fill="#000000"><![CDATA[belongs to]]></text><text x="690" y="951" font-family="sans-serif" font-size="16" stroke="none" fill="#000000"><![CDATA[organization]]></text><text x="690" y="965" font-family="sans-serif" font-size="16" stroke="none" fill="#000000"><![CDATA[and that it]]></text><text x="690" y="979" font-family="sans-serif" font-size="16" stroke="none" fill="#000000"><![CDATA[matches SA's]]></text><text x="690" y="993" font-family="sans-serif" font-size="16" stroke="none" fill="#000000"><![CDATA[organization]]></text><text x="400" y="937" font-family="sans-serif" font-size="16" stroke="none" fill="#000000"><![CDATA[Check that NS]]></text><text x="400" y="951" font-family="sans-serif" font-size="16" stroke="none" fill="#000000"><![CDATA[belongs to]]></text><text x="400" y="965" font-family="sans-serif" font-size="16" stroke="none" fill="#000000"><![CDATA[organization]]></text><text x="400" y="979" font-family="sans-serif" font-size="16" stroke="none" fill="#000000"><![CDATA[and user is]]></text><text x="400" y="993" font-family="sans-serif" font-size="16" stroke="none" fill="#000000"><![CDATA[member of it]]></text><text x="93" y="965" font-family="sans-serif" font-size="16" stroke="none" fill="#000000"><![CDATA[CREATE Project[1]]]></text><text x="72" y="1034" font-family="sans-serif" font-size="14" stroke="none" fill="#000000"><![CDATA[PRJ_ORG]]></text><text x="131" y="1076" font-family="sans-serif" font-size="14" stroke="none" fill="#000000"><![CDATA[MUTATE]]></text><text x="90" y="1105" font-family="sans-serif" font-size="16" stroke="none" fill="#000000"><![CDATA[Inject]]></text><text x="90" y="1119" font-family="sans-serif" font-size="16" stroke="none" fill="#000000"><![CDATA[organization]]></text><text x="90" y="1133" font-family="sans-serif" font-size="16" stroke="none" fill="#000000"><![CDATA[from project]]></text><text x="90" y="1147" font-family="sans-serif" font-size="16" stroke="none" fill="#000000"><![CDATA[annotation]]></text><text x="360" y="1133" font-family="sans-serif" font-size="16" stroke="none" fill="#000000"><![CDATA[no]]></text><text x="532" y="1189" font-family="sans-serif" font-size="16" stroke="none" fill="#000000"><![CDATA[yes]]></text><text x="131" y="1259" font-family="sans-serif" font-size="16" stroke="none" fill="#000000"><![CDATA[triggers]]></text><text x="75" y="1273" font-family="sans-serif" font-size="16" stroke="none" fill="#000000"><![CDATA[CREATE Namespace[2]]]></text><text x="450" y="1286" font-family="sans-serif" font-size="14" stroke="none" fill="#000000"><![CDATA[NS_QUOT]]></text><text x="513" y="1328" font-family="sans-serif" font-size="15" stroke="none" fill="#ffffff"><![CDATA[VALIDATE]]></text><text x="400" y="1357" font-family="sans-serif" font-size="16" stroke="none" fill="#000000"><![CDATA[no]]></text><text x="480" y="1357" font-family="sans-serif" font-size="16" stroke="none" fill="#000000"><![CDATA[Check if]]></text><text x="480" y="1371" font-family="sans-serif" font-size="16" stroke="none" fill="#000000"><![CDATA[organization]]></text><text x="480" y="1385" font-family="sans-serif" font-size="16" stroke="none" fill="#000000"><![CDATA[can create]]></text><text x="480" y="1399" font-family="sans-serif" font-size="16" stroke="none" fill="#000000"><![CDATA[more namespaces]]></text><text x="552" y="1455" font-family="sans-serif" font-size="16" stroke="none" fill="#000000"><![CDATA[yes]]></text><text x="451" y="1482" font-family="sans-serif" font-size="15" stroke="none" fill="#000000"><![CDATA[NS_LBL]]></text><text x="513" y="1524" font-family="sans-serif" font-size="15" stroke="none" fill="#ffffff"><![CDATA[VALIDATE]]></text><text x="400" y="1553" font-family="sans-serif" font-size="16" stroke="none" fill="#000000"><![CDATA[no]]></text><text x="470" y="1553" font-family="sans-serif" font-size="16" stroke="none" fill="#000000"><![CDATA[Check if]]></text><text x="470" y="1567" font-family="sans-serif" font-size="16" stroke="none" fill="#000000"><![CDATA[the request only]]></text><text x="470" y="1581" font-family="sans-serif" font-size="16" stroke="none" fill="#000000"><![CDATA[contains allowed]]></text><text x="470" y="1595" font-family="sans-serif" font-size="16" stroke="none" fill="#000000"><![CDATA[labels and]]></text><text x="470" y="1609" font-family="sans-serif" font-size="16" stroke="none" fill="#000000"><![CDATA[annotations]]></text><text x="552" y="1665" font-family="sans-serif" font-size="16" stroke="none" fill="#000000"><![CDATA[yes]]></text><text x="291" y="1734" font-family="sans-serif" font-size="14" stroke="none" fill="#000000"><![CDATA[DENY]]></text><text x="286" y="1749" font-family="sans-serif" font-size="16" stroke="none" fill="#000000"><![CDATA[request]]></text><text x="532" y="1734" font-family="sans-serif" font-size="13" stroke="none" fill="#ffffff"><![CDATA[ALLOW]]></text><text x="526" y="1749" font-family="sans-serif" font-size="16" stroke="none" fill="#ffffff"><![CDATA[request]]></text><text x="480" y="1860" font-family="sans-serif" font-size="14" stroke="none" fill="#000000"><![CDATA[CREATE]]></text><text x="480" y="1875" font-family="sans-serif" font-size="16" stroke="none" fill="#000000"><![CDATA[Namespace with]]></text><text x="480" y="1889" font-family="sans-serif" font-size="16" stroke="none" fill="#000000"><![CDATA[organization]]></text><text x="480" y="1903" font-family="sans-serif" font-size="16" stroke="none" fill="#000000"><![CDATA[label]]></text><text x="300" y="2000" font-family="sans-serif" font-size="14" stroke="none" fill="#000000"><![CDATA[ORG_RBAC]]></text><text x="581" y="2000" font-family="sans-serif" font-size="14" stroke="none" fill="#000000"><![CDATA[RES_QUOT]]></text><text x="361" y="2042" font-family="sans-serif" font-size="14" stroke="none" fill="#000000"><![CDATA[GENERATE]]></text><text x="661" y="2042" font-family="sans-serif" font-size="14" stroke="none" fill="#000000"><![CDATA[GENERATE]]></text><text x="350" y="2071" font-family="sans-serif" font-size="16" stroke="none" fill="#000000"><![CDATA[Grant the]]></text><text x="350" y="2085" font-family="sans-serif" font-size="16" stroke="none" fill="#000000"><![CDATA[organization]]></text><text x="350" y="2099" font-family="sans-serif" font-size="16" stroke="none" fill="#000000"><![CDATA[Role "admin"]]></text><text x="350" y="2113" font-family="sans-serif" font-size="16" stroke="none" fill="#000000"><![CDATA[in the NS]]></text><text x="620" y="2071" font-family="sans-serif" font-size="16" stroke="none" fill="#000000"><![CDATA[Create]]></text><text x="620" y="2085" font-family="sans-serif" font-size="16" stroke="none" fill="#000000"><![CDATA[ResourceQuota and]]></text><text x="620" y="2099" font-family="sans-serif" font-size="16" stroke="none" fill="#000000"><![CDATA[LimitRange objects]]></text><text x="620" y="2113" font-family="sans-serif" font-size="16" stroke="none" fill="#000000"><![CDATA[in the namespace]]></text></g></svg>