<?xml version="1.0" encoding="UTF-8"?><svg xmlns="http://www.w3.org/2000/svg" width="660" height="462" version="1.0" shape-rendering="geometricPrecision"><defs><filter id="shadowBlur" x="0" y="0" width="200%" height="200%"><feOffset in="SourceGraphic" dx="3.0003002" dy="3.0003002" result="offOut"></feOffset><feGaussianBlur in="offOut" stdDeviation="3"></feGaussianBlur></filter></defs><g stroke-width="1" stroke-linecap="square" stroke-linejoin="round"><rect x="0" y="0" width="660" height="462" style="fill: #ffffff"></rect><path stroke="#969696" fill="#969696" filter="url(#shadowBlur)" d="M55.0 119.0 L155.0 119.0 L155.0 217.0 L55.0 217.0 z"></path><path stroke="#969696" fill="#969696" filter="url(#shadowBlur)" d="M315.0 350.0 Q315.0 343.0 320.0 343.0 L400.0 343.0 Q405.0 343.0 405.0 350.0 L405.0 392.0 L405.0 392.0 Q405.0 399.0 400.0 399.0 L320.0 399.0 L320.0 399.0 Q315.0 399.0 315.0 392.0 L315.0 350.0 z"></path><path stroke="#969696" fill="#969696" filter="url(#shadowBlur)" d="M325.0 70.0 Q325.0 63.0 330.0 63.0 L400.0 63.0 Q405.0 63.0 405.0 70.0 L405.0 112.0 L405.0 112.0 Q405.0 119.0 400.0 119.0 L330.0 119.0 L330.0 119.0 Q325.0 119.0 325.0 112.0 L325.0 70.0 z"></path><path stroke="#969696" fill="#969696" filter="url(#shadowBlur)" d="M505.0 70.0 Q505.0 63.0 510.0 63.0 L580.0 63.0 Q585.0 63.0 585.0 70.0 L585.0 112.0 L585.0 112.0 Q585.0 119.0 580.0 119.0 L510.0 119.0 L510.0 119.0 Q505.0 119.0 505.0 112.0 L505.0 70.0 z"></path><path stroke="#969696" fill="#969696" filter="url(#shadowBlur)" d="M325.0 210.0 Q325.0 203.0 330.0 203.0 L400.0 203.0 Q405.0 203.0 405.0 210.0 L405.0 252.0 L405.0 252.0 Q405.0 259.0 400.0 259.0 L330.0 259.0 L330.0 259.0 Q325.0 259.0 325.0 252.0 L325.0 210.0 z"></path><path stroke="#969696" fill="#969696" filter="url(#shadowBlur)" d="M505.0 210.0 Q505.0 203.0 510.0 203.0 L580.0 203.0 Q585.0 203.0 585.0 210.0 L585.0 252.0 L585.0 252.0 Q585.0 259.0 580.0 259.0 L510.0 259.0 L510.0 259.0 Q505.0 259.0 505.0 252.0 L505.0 210.0 z"></path><path stroke="#969696" fill="#969696" filter="url(#shadowBlur)" d="M505.0 350.0 Q505.0 343.0 510.0 343.0 L580.0 343.0 Q585.0 343.0 585.0 350.0 L585.0 392.0 L585.0 392.0 Q585.0 399.0 580.0 399.0 L510.0 399.0 L510.0 399.0 Q505.0 399.0 505.0 392.0 L505.0 350.0 z"></path><path stroke="#000000" stroke-width="1.0" stroke-linecap="round" stroke-linejoin="round" fill="none" d="M295.0 63.0 L295.0 35.0 L635.0 35.0 L635.0 147.0 L455.0 147.0 "></path><path stroke="#000000" stroke-width="1.0" stroke-linecap="round" stroke-linejoin="round" fill="none" d="M455.0 175.0 L635.0 175.0 L635.0 287.0 L455.0 287.0 "></path><path stroke="#000000" stroke-width="1.0" stroke-linecap="round" stroke-linejoin="round" fill="none" d="M465.0 357.0 L465.0 315.0 L635.0 315.0 L635.0 427.0 L465.0 427.0 L465.0 385.0 "></path><path stroke="#000000" stroke-width="1.0" stroke-linecap="round" stroke-linejoin="round" fill="none" d="M295.0 357.0 L295.0 315.0 L425.0 315.0 L425.0 427.0 L295.0 427.0 L295.0 385.0 "></path><path stroke="#000000" stroke-width="1.0" stroke-linecap="round" stroke-linejoin="round" fill="white" d="M55.0 119.0 L155.0 119.0 L155.0 217.0 L55.0 217.0 z"></path><path stroke="#000000" stroke-width="1.0" stroke-linecap="round" stroke-linejoin="round" fill="none" d="M315.0 77.0 L230.0 77.0 Q225.0 77.0 225.0 84.0 L225.0 231.0 L225.0 231.0 "></path><path stroke="#000000" stroke-width="1.0" stroke-linecap="round" stroke-linejoin="round" fill="none" d="M55.0 315.0 L55.0 259.0 L155.0 259.0 L155.0 315.0 "></path><path stroke="#000000" stroke-width="1.0" stroke-linecap="round" stroke-linejoin="round" fill="white" d="M315.0 350.0 Q315.0 343.0 320.0 343.0 L400.0 343.0 Q405.0 343.0 405.0 350.0 L405.0 392.0 L405.0 392.0 Q405.0 399.0 400.0 399.0 L320.0 399.0 L320.0 399.0 Q315.0 399.0 315.0 392.0 L315.0 350.0 z"></path><path stroke="#000000" stroke-width="1.0" stroke-linecap="round" stroke-linejoin="round" fill="white" d="M325.0 70.0 Q325.0 63.0 330.0 63.0 L400.0 63.0 Q405.0 63.0 405.0 70.0 L405.0 112.0 L405.0 112.0 Q405.0 119.0 400.0 119.0 L330.0 119.0 L330.0 119.0 Q325.0 119.0 325.0 112.0 L325.0 70.0 z"></path><path stroke="#000000" stroke-width="1.0" stroke-linecap="round" stroke-linejoin="round" fill="white" d="M505.0 70.0 Q505.0 63.0 510.0 63.0 L580.0 63.0 Q585.0 63.0 585.0 70.0 L585.0 112.0 L585.0 112.0 Q585.0 119.0 580.0 119.0 L510.0 119.0 L510.0 119.0 Q505.0 119.0 505.0 112.0 L505.0 70.0 z"></path><path stroke="#000000" stroke-width="1.0" stroke-linecap="round" stroke-linejoin="round" fill="white" d="M325.0 210.0 Q325.0 203.0 330.0 203.0 L400.0 203.0 Q405.0 203.0 405.0 210.0 L405.0 252.0 L405.0 252.0 Q405.0 259.0 400.0 259.0 L330.0 259.0 L330.0 259.0 Q325.0 259.0 325.0 252.0 L325.0 210.0 z"></path><path stroke="#000000" stroke-width="1.0" stroke-linecap="round" stroke-linejoin="round" fill="white" d="M505.0 210.0 Q505.0 203.0 510.0 203.0 L580.0 203.0 Q585.0 203.0 585.0 210.0 L585.0 252.0 L585.0 252.0 Q585.0 259.0 580.0 259.0 L510.0 259.0 L510.0 259.0 Q505.0 259.0 505.0 252.0 L505.0 210.0 z"></path><path stroke="#000000" stroke-width="1.0" stroke-linecap="round" stroke-linejoin="round" fill="white" d="M505.0 350.0 Q505.0 343.0 510.0 343.0 L580.0 343.0 Q585.0 343.0 585.0 350.0 L585.0 392.0 L585.0 392.0 Q585.0 399.0 580.0 399.0 L510.0 399.0 L510.0 399.0 Q505.0 399.0 505.0 392.0 L505.0 350.0 z"></path><path stroke="#000000" stroke-width="1.0" stroke-linecap="round" stroke-linejoin="round" fill="none" d="M445.0 231.0 L445.0 364.0 Q445.0 371.0 450.0 371.0 L495.0 371.0 L495.0 371.0 "></path><path stroke="#000000" stroke-width="1.0" stroke-linecap="round" stroke-linejoin="round" fill="none" d="M295.0 105.0 L295.0 147.0 L435.0 147.0 "></path><path stroke="#000000" stroke-width="1.0" stroke-linecap="round" stroke-linejoin="round" fill="none" d="M295.0 245.0 L295.0 287.0 L435.0 287.0 "></path><path stroke="#000000" stroke-width="1.0" stroke-linecap="round" stroke-linejoin="round" fill="none" d="M225.0 231.0 L225.0 308.0 Q225.0 315.0 220.0 315.0 L165.0 315.0 L165.0 315.0 "></path><path stroke="#000000" stroke-width="1.0" stroke-linecap="round" stroke-linejoin="round" fill="none" d="M435.0 175.0 L295.0 175.0 L295.0 203.0 "></path><path stroke="#000000" stroke-width="1.0" stroke-dasharray="5.0,5.0" stroke-miterlimit="0" stroke-linecap="butt" stroke-linejoin="round" fill="none" d="M45.0 175.0 L30.0 175.0 Q25.0 175.0 25.0 182.0 L25.0 329.0 L25.0 329.0 "></path><path stroke="#000000" stroke-width="1.0" stroke-linecap="round" stroke-linejoin="round" fill="none" d="M55.0 343.0 L55.0 357.0 L155.0 357.0 L155.0 343.0 "></path><path stroke="#000000" stroke-width="1.0" stroke-dasharray="5.0,5.0" stroke-miterlimit="0" stroke-linecap="butt" stroke-linejoin="round" fill="none" d="M25.0 315.0 L25.0 322.0 Q25.0 329.0 30.0 329.0 L220.0 329.0 L220.0 329.0 Q225.0 329.0 225.0 336.0 L225.0 364.0 L225.0 364.0 Q225.0 371.0 230.0 371.0 L305.0 371.0 L305.0 371.0 "></path><path stroke="#000000" stroke-width="1.0" stroke-linecap="round" stroke-linejoin="round" fill="none" d="M215.0 91.0 L210.0 91.0 Q205.0 91.0 205.0 98.0 L205.0 175.0 L205.0 175.0 "></path><path stroke="#000000" stroke-width="1.0" stroke-linecap="round" stroke-linejoin="round" fill="none" d="M205.0 175.0 L205.0 210.0 Q205.0 217.0 210.0 217.0 L215.0 217.0 L215.0 217.0 "></path><path stroke="none" stroke-width="1.0" stroke-linecap="round" stroke-linejoin="round" fill="#000000" d="M310.0 70.0 L320.0 77.0 L310.0 84.0 z"></path><path stroke="none" stroke-width="1.0" stroke-linecap="round" stroke-linejoin="round" fill="#000000" d="M310.0 84.0 L320.0 91.0 L310.0 98.0 z"></path><path stroke="none" stroke-width="1.0" stroke-linecap="round" stroke-linejoin="round" fill="#000000" d="M490.0 84.0 L500.0 91.0 L490.0 98.0 z"></path><path stroke="none" stroke-width="1.0" stroke-linecap="round" stroke-linejoin="round" fill="#000000" d="M40.0 168.0 L50.0 175.0 L40.0 182.0 z"></path><path stroke="none" stroke-width="1.0" stroke-linecap="round" stroke-linejoin="round" fill="#000000" d="M310.0 210.0 L320.0 217.0 L310.0 224.0 z"></path><path stroke="none" stroke-width="1.0" stroke-linecap="round" stroke-linejoin="round" fill="#000000" d="M310.0 224.0 L320.0 231.0 L310.0 238.0 z"></path><path stroke="none" stroke-width="1.0" stroke-linecap="round" stroke-linejoin="round" fill="#000000" d="M490.0 224.0 L500.0 231.0 L490.0 238.0 z"></path><path stroke="none" stroke-width="1.0" stroke-linecap="round" stroke-linejoin="round" fill="#000000" d="M40.0 308.0 L50.0 315.0 L40.0 322.0 z"></path><path stroke="none" stroke-width="1.0" stroke-linecap="round" stroke-linejoin="round" fill="#000000" d="M490.0 364.0 L500.0 371.0 L490.0 378.0 z"></path><path stroke="#000000" stroke-width="1.0" stroke-linecap="round" stroke-linejoin="round" fill="none" d="M225.0 231.0 L315.0 231.0 "></path><path stroke="#000000" stroke-width="1.0" stroke-linecap="round" stroke-linejoin="round" fill="none" d="M205.0 175.0 L175.0 175.0 "></path><path stroke="#000000" stroke-width="1.0" stroke-linecap="round" stroke-linejoin="round" fill="none" d="M235.0 91.0 L315.0 91.0 "></path><path stroke="#000000" stroke-width="1.0" stroke-linecap="round" stroke-linejoin="round" fill="none" d="M445.0 91.0 L495.0 91.0 "></path><path stroke="#000000" stroke-width="1.0" stroke-linecap="round" stroke-linejoin="round" fill="none" d="M445.0 231.0 L415.0 231.0 "></path><path stroke="#000000" stroke-width="1.0" stroke-linecap="round" stroke-linejoin="round" fill="none" d="M445.0 231.0 L495.0 231.0 "></path><path stroke="#000000" stroke-width="1.0" stroke-linecap="round" stroke-linejoin="round" fill="none" d="M445.0 91.0 L445.0 231.0 "></path><path stroke="#000000" stroke-width="1.0" stroke-linecap="round" stroke-linejoin="round" fill="none" d="M415.0 91.0 L445.0 91.0 "></path><path stroke="#000000" stroke-width="1.0" stroke-dasharray="5.0,5.0" stroke-miterlimit="0" stroke-linecap="butt" stroke-linejoin="round" fill="none" d="M25.0 315.0 L45.0 315.0 "></path><path stroke="#000000" stroke-width="1.0" stroke-linecap="round" stroke-linejoin="round" fill="none" d="M235.0 217.0 L315.0 217.0 "></path><text x="319" y="54" font-family="sans-serif" font-size="15" stroke="none" fill="#000000"><![CDATA[infra 1]]></text><text x="335" y="96" font-family="sans-serif" font-size="15" stroke="none" fill="#000000"><![CDATA[Ingress]]></text><text x="511" y="96" font-family="sans-serif" font-size="15" stroke="none" fill="#000000"><![CDATA[Canary]]></text><text x="76" y="138" font-family="sans-serif" font-size="15" stroke="none" fill="#000000"><![CDATA[lb 1]]></text><text x="319" y="194" font-family="sans-serif" font-size="15" stroke="none" fill="#000000"><![CDATA[infra 2]]></text><text x="335" y="236" font-family="sans-serif" font-size="15" stroke="none" fill="#000000"><![CDATA[Ingress]]></text><text x="511" y="236" font-family="sans-serif" font-size="15" stroke="none" fill="#000000"><![CDATA[Canary]]></text><text x="76" y="278" font-family="sans-serif" font-size="15" stroke="none" fill="#000000"><![CDATA[lb 2]]></text><text x="311" y="334" font-family="sans-serif" font-size="15" stroke="none" fill="#000000"><![CDATA[master]]></text><text x="481" y="334" font-family="sans-serif" font-size="15" stroke="none" fill="#000000"><![CDATA[worker]]></text><text x="323" y="376" font-family="sans-serif" font-size="15" stroke="none" fill="#000000"><![CDATA[Operator]]></text><text x="511" y="376" font-family="sans-serif" font-size="15" stroke="none" fill="#000000"><![CDATA[Canary]]></text></g></svg>