<svg version="1.0" xmlns="http://www.w3.org/2000/svg" width="261.333" height="261.333" viewBox="0 0 196 196"><path d="M88.3 21.4c-2.3.8-6.4 2.6-9 4.1-4.9 2.8-38.3 35.1-38.3 37 0 .6 6.6 7.7 14.8 15.8L70.5 93 101 62.5c34.9-35 33.1-31.4 19.2-38.3-7-3.4-8.2-3.7-17.6-3.9-6.5-.2-11.6.2-14.3 1.1zM120.5 52l-15 15 30.8 30.8 30.8 30.7 2.5-3c4-4.7 8.2-14.4 9.3-21.5 1.6-9.8-.9-21.8-6-29.3C170.7 71.5 137 37 136 37c-.3 0-7.3 6.8-15.5 15zM31.1 72.6c-9 12.6-10.6 29.3-4.2 43.1 2.8 5.8 5.8 9.4 21.4 25.1L66.5 159l14.7-14.7c8.2-8.1 14.8-15.2 14.8-15.8 0-.6-13.7-14.7-30.4-31.4L35.3 66.8l-4.2 5.8zm70.1 60.7l-30.4 30.4 3.2 2.7c14.5 12.1 37.5 12.6 53 1.1 2.5-1.9 11.5-10.4 20-18.9l15.5-15.6-15-15c-8.2-8.2-15.2-15-15.5-15-.3 0-14.2 13.7-30.8 30.3z"/></svg>