<svg version="1.0" xmlns="http://www.w3.org/2000/svg" width="933.333" height="933.333" viewBox="0 0 700 700"><path d="M421.5 1.4c-20.1 3.2-42.9 14-57.4 27.1-6.5 5.8-30.9 30.9-51 52.4-3.5 3.7-29.4 30.9-48.1 50.5-5.8 6-11.8 12.4-13.5 14.1-3.2 3.4-30.5 32-41.8 43.9-9.4 9.8-33.3 34.8-40.2 42.1-3.1 3.3-6.3 7.3-7.2 8.8-2 4-2.3 10.5-.6 14.7 2.8 7 4.9 8.3 27.8 17.8 3.3 1.3 7.4 3 9 3.7 1.7.7 16.1 6.8 32.1 13.4 30.3 12.6 34 13.6 39.7 10.6 1.5-.8 10.3-9.2 19.6-18.7s23.1-23.6 30.6-31.3c7.5-7.7 24.6-25.3 38-39 13.4-13.8 34.4-35.3 46.7-47.9l22.3-22.8.3 89.8c.1 49.5.4 111.8.5 138.7.1 26.8.2 48.7.1 48.7-.2 0-13.4-5.4-15.9-6.5-3-1.3-24.5-10-34-13.7-2.7-1.1-6.8-2.8-9-3.7-2.2-1-6-2.6-8.5-3.6s-5.8-2.3-7.5-3c-1.6-.7-11.3-4.7-21.5-8.8-20.7-8.4-39.8-16.2-57-23.2-6.3-2.6-19.8-8.1-30-12.2s-20.1-8.2-22-9c-1.9-.8-4.5-1.9-5.7-2.4-1.3-.5-3.3-1.3-4.5-1.9-1.3-.5-9.7-3.9-18.8-7.6-15.6-6.2-18.9-7.6-26.8-11-8.1-3.5-15.9-3-20.8 1.4-7 6-6.4-11.2-6.2 197.9l.3 188.7 18.4-24.9c10.2-13.8 19.4-26.2 20.5-27.7 1.2-1.4 2.8-3.5 3.6-4.6 5.6-7.5 64.1-86.2 80.3-108 10.9-14.7 20.4-27.4 21.2-28.4 1.2-1.5 4-.5 32.2 10.9 72.2 29.2 76.1 30.6 87.8 32.9 15 2.8 38 2.4 54.1-1 5.1-1.1 20.9-6.8 27.8-10.2 35.4-17 62.3-50.9 70.5-88.9.6-2.8 1.4-6.4 1.8-8 .4-1.7.8-77 .8-167.4.1-166.8.1-170.2-3.4-185.5-2.9-12.5-12.6-32.3-20.8-42.6-1.5-1.9-6.4-7.1-10.9-11.6-15.7-15.5-36.3-26.6-58.8-31.6-11.3-2.5-32.8-3.1-44.1-1.4z"/></svg>