<svg xmlns="http://www.w3.org/2000/svg" viewBox="0 0 600.875 427.087" height="427.087" width="600.875"><defs><clipPath id="a" clipPathUnits="userSpaceOnUse"><path d="M0 320.315h450.656V0H0z"/></clipPath><clipPath id="b" clipPathUnits="userSpaceOnUse"><path d="M0 0h450.656v320.315H0z"/></clipPath></defs><g clip-path="url(#a)" transform="matrix(1.33333 0 0 -1.33333 0 427.087)" fill="#fff"><path d="M241.699 233.731c-33.136 25.336-70.015 24.388-72.387 24.862-.01 0-.118-.118-.118-.118-16.9-14.82-26.857-35.499-26.857-59.699 0-44.63 36.28-80.82 81.04-80.82 27.429 0 50.85 11.666 65.5 32.466 0 0-2.854 49.418-47.178 83.31"/><path d="M305.891 199.844c0-1.2-.03-2.41-.089-3.6-.013-.34-.022-.68-.05-1.02a77.44 77.44 0 00-.642-6.57 74.78 74.78 0 00-.479-3.07c-.092-.51-.19-1.02-.29-1.52a1.065 1.065 0 01-.039-.19 93.595 93.595 0 00-.671-3.04c-.409-1.7-.86-3.38-1.38-5.02a80.316 80.316 0 00-10.8-22.02c-.08-.13-.17-.25-.26-.37 0 0-3.16 49.68-47.99 82.9-35.6 26.38-71.033 24.546-71.733 24.506 7.8 6.85 16.863 11.964 26.903 15.424l.2.06c.45.15.89.29 1.34.44.55.17 1.11.34 1.67.5.35.1.7.2 1.06.3.53.15 1.07.3 1.61.43.31.08.62.16.93.23.75.2 1.52.37 2.28.54.03.01.07.01.1.02.3.07.6.13.9.19l.9.18c.13.03.27.05.41.08.76.15 1.52.28 2.29.4l.37.06c.43.07.85.13 1.28.19.11.01.21.03.32.04.31.05.63.09.95.13.13.02.27.04.4.05l1.33.15c.28.03.55.06.82.08.16.02.32.03.49.05.41.04.82.07 1.23.09.03.01.05.01.08.01.07.01.15.01.22.02.49.03.97.06 1.46.08a72.36 72.36 0 003.85.1c44.75 0 81.03-36.19 81.03-80.83"/><path d="M131.98 259.021s48.475 31.765 91.857 31.765c40.1 0 73.222-24.208 73.222-24.208v31.683s-37.496 22.053-72.857 22.053c-28.94 0-58.754-9.537-92.282-27.475L0 215.88v-33.02l133.29-77.029-.04 33.83-105.13 59.1 103.84 60.28"/></g><g clip-path="url(#b)" transform="matrix(1.33333 0 0 -1.33333 0 427.087)"><path d="M449.863 215.092l-133.287 77.037-.032-33.831 105.195-59.102-103.556-60.088v.039s-48.83-32.211-92.212-32.211c-40.101 0-73.222 24.39-73.222 24.39l.106-31.791s37.389-22.13 72.75-22.13c28.94 0 59.05 9.12 92.578 27.06v.086l131.68 77.525z" fill="#fff"/></g></svg>